<?xml version="1.0" encoding="UTF-8"?>
<!DOCTYPE svg PUBLIC "-//W3C//DTD SVG 1.1//EN" "http://www.w3.org/Graphics/SVG/1.1/DTD/svg11.dtd">
<!-- Creator: CorelDRAW 2021 (64-Bit) -->
<svg xmlns="http://www.w3.org/2000/svg" xml:space="preserve" width="26.0182mm" height="4.7413mm" version="1.1" style="shape-rendering:geometricPrecision; text-rendering:geometricPrecision; image-rendering:optimizeQuality; fill-rule:evenodd; clip-rule:evenodd"
viewBox="0 0 175.67 32.01"
 xmlns:xlink="http://www.w3.org/1999/xlink"
 xmlns:xodm="http://www.corel.com/coreldraw/odm/2003">
 <defs>
  <style type="text/css">
   <![CDATA[
    .fil0 {fill:#FEFEFE}
   ]]>
  </style>
 </defs>
 <g id="Capa_x0020_1">
  <metadata id="CorelCorpID_0Corel-Layer"/>
  <path class="fil0" d="M73.18 13.5l-12.98 0c-1.38,0 -2.51,1.13 -2.51,2.51l0 0c0,1.38 1.13,2.51 2.51,2.51l12.98 0c1.38,0 2.51,-1.13 2.51,-2.51l0 0c0,-1.38 -1.13,-2.51 -2.51,-2.51zm14.08 2.51c0,-3.82 3.1,-6.92 6.92,-6.92 3.82,0 6.92,3.1 6.92,6.92 0,3.82 -3.1,6.92 -6.92,6.92 -3.82,0 -6.92,-3.1 -6.92,-6.92zm6.92 11.93c6.59,0 11.93,-5.34 11.93,-11.93 0,-6.59 -5.34,-11.93 -11.93,-11.93 -6.59,0 -11.93,5.34 -11.93,11.93 0,6.59 5.34,11.93 11.93,11.93zm-49.15 -11.94c0.01,-3.82 3.11,-6.91 6.93,-6.91 1.57,0 3.01,0.53 4.17,1.41 0.45,0.35 0.94,0.51 1.52,0.51 1.09,0 2.02,-0.67 2.37,-1.7 0.35,-1.04 0.01,-2.13 -0.86,-2.79 -2,-1.52 -4.49,-2.42 -7.19,-2.43 -6.59,-0.01 -11.93,5.32 -11.95,11.91 -0.01,6.59 5.32,11.94 11.91,11.95 2.7,0 5.2,-0.89 7.2,-2.41 0.87,-0.66 1.21,-1.75 0.86,-2.79 -0.35,-1.04 -1.27,-1.71 -2.37,-1.71 -0.57,-0 -1.06,0.16 -1.52,0.51 -1.16,0.88 -2.61,1.4 -4.18,1.39 -3.82,-0.01 -6.91,-3.11 -6.91,-6.93zm128.14 -2.5l-8.85 0c-1.38,0 -2.51,1.13 -2.51,2.51l0 0c0,1.38 1.13,2.51 2.51,2.51l5.88 0c-1,2.58 -3.51,4.41 -6.45,4.41 -3.82,0 -6.92,-3.1 -6.92,-6.92 0,-3.82 3.1,-6.92 6.92,-6.92 1.57,0 3.01,0.52 4.17,1.4 0.46,0.35 0.95,0.51 1.52,0.51 1.09,-0 2.02,-0.67 2.36,-1.71 0.35,-1.04 0.01,-2.13 -0.86,-2.79 -2,-1.52 -4.49,-2.42 -7.2,-2.42 -6.59,0 -11.93,5.34 -11.93,11.93 0,6.59 5.34,11.93 11.93,11.93 6.57,0 11.89,-5.3 11.93,-11.86l0 -0.07 0 0c0,-1.38 -1.13,-2.51 -2.51,-2.51zm-27 8.82l-6.34 0 0 -15.13c0,-1.38 -1.13,-2.51 -2.51,-2.51l0 0c-1.38,0 -2.51,1.13 -2.51,2.51l0 17.64 0 0c0,1.38 1.13,2.51 2.51,2.51l0 0 8.85 0c1.38,0 2.51,-1.13 2.51,-2.51l0 0c0,-1.38 -1.13,-2.51 -2.51,-2.51zm-22.93 -16.03l2.99 8.33 0.01 0.02 3.41 9.38c0.47,1.3 -0.2,2.74 -1.5,3.21l0 0c-1.3,0.47 -2.74,-0.2 -3.21,-1.5l-4.13 -11.35 -1.06 2.91c-0.01,0.04 -0.03,0.09 -0.04,0.13l-3.03 8.32c-0.41,1.13 -1.57,1.79 -2.72,1.62l0 0 -0.06 -0.01 0 0 -0.06 -0.01 0 0 -0.06 -0.01 0 0 -0.06 -0.01 0 0 -0.06 -0.02 0 0 -0.06 -0.02 -0.06 -0.02 0 0 -0.06 -0.02 0 0 0 -0 -0.06 -0.02 0 0 -0.06 -0.02 0 0 -0.06 -0.03 0 0 -0.06 -0.03 0 0 -0.06 -0.03 -0 0 -0.06 -0.03 0 0 -0.05 -0.03 -0 0 -0.05 -0.03 0 0c-0.99,-0.61 -1.45,-1.86 -1.04,-2.99l6.44 -17.7c0.28,-0.77 0.9,-1.32 1.63,-1.54 1.3,-0.46 2.74,0.22 3.2,1.51zm-46.71 16.06l-8.85 0c-1.38,0 -2.51,1.13 -2.51,2.51l0 0c0,1.38 1.13,2.51 2.51,2.51l8.85 0c1.38,0 2.51,-1.13 2.51,-2.51l0 -0c0,-1.38 -1.13,-2.51 -2.51,-2.51zm0 -17.7l-8.85 0c-1.38,0 -2.51,1.13 -2.51,2.51l0 0c0,1.38 1.13,2.51 2.51,2.51l8.85 0c1.38,0 2.51,-1.13 2.51,-2.51l0 0c0,-1.38 -1.13,-2.51 -2.51,-2.51z"/>
  <path class="fil0" d="M16.01 32.01c-8.84,0 -16.01,-7.17 -16.01,-16.01 0,-8.84 7.17,-16.01 16.01,-16.01 8.84,0 16.01,7.17 16.01,16.01 0,8.84 -7.17,16.01 -16.01,16.01zm-7.52 -16.01c0,-4.2 3.4,-7.6 7.6,-7.6 1.72,0 3.31,0.57 4.59,1.54 0.5,0.38 1.04,0.56 1.67,0.56 1.2,-0 2.22,-0.74 2.6,-1.87 0.38,-1.14 0.01,-2.34 -0.95,-3.07 -2.2,-1.67 -4.94,-2.66 -7.91,-2.66 -7.24,0 -13.11,5.87 -13.11,13.11 0,7.24 5.87,13.11 13.11,13.11 2.97,0 5.71,-0.99 7.91,-2.66 0.96,-0.73 1.33,-1.93 0.95,-3.07 -0.38,-1.14 -1.4,-1.87 -2.61,-1.87 -0.63,0 -1.17,0.18 -1.66,0.56 -1.28,0.97 -2.86,1.54 -4.59,1.54 -4.2,0 -7.6,-3.4 -7.6,-7.6zm19.09 2.55l-3.56 0c-0.55,0 -1.01,0.45 -1.01,1.01 0,0.55 0.45,1.01 1.01,1.01l3.56 0c0.55,0 1.01,-0.45 1.01,-1.01 0,-0.55 -0.45,-1.01 -1.01,-1.01zm0 -7.13l-3.56 0c-0.55,0 -1.01,0.45 -1.01,1.01 0,0.55 0.45,1.01 1.01,1.01l3.56 0c0.55,0 1.01,-0.45 1.01,-1.01 0,-0.55 -0.45,-1.01 -1.01,-1.01zm-1.34 3.56l-5.22 0c-0.55,0 -1.01,0.45 -1.01,1.01 0,0.55 0.45,1.01 1.01,1.01l5.22 0c0.55,0 1.01,-0.45 1.01,-1.01 0,-0.55 -0.45,-1.01 -1.01,-1.01z"/>
 </g>
</svg>
